HIERARCHY
ROOT Hips
{
	OFFSET 0.000000 0.000000 0.000000
	CHANNELS 6 Xposition Yposition Zposition Xrotation Yrotation Zrotation
	JOINT Spine
	{
		OFFSET 0.000000 0.000000 0.102259
		CHANNELS 3 Xrotation Yrotation Zrotation
		JOINT Spine1
		{
			OFFSET 0.000000 -0.017757 0.100705
			CHANNELS 3 Xrotation Yrotation Zrotation
			JOINT Spine2
			{
				OFFSET 0.000000 -0.008912 0.101870
				CHANNELS 3 Xrotation Yrotation Zrotation
				JOINT Spine3
				{
					OFFSET 0.000000 0.000000 0.102259
					CHANNELS 3 Xrotation Yrotation Zrotation
					JOINT Neck
					{
						OFFSET 0.000000 0.013148 0.131476
						CHANNELS 3 Xrotation Yrotation Zrotation
						JOINT Neck1
						{
							OFFSET 0.000000 0.003817 0.043628
							CHANNELS 3 Xrotation Yrotation Zrotation
							JOINT Head
							{
								OFFSET 0.000000 0.007605 0.043130
								CHANNELS 3 Xrotation Yrotation Zrotation
								End Site
								{
									OFFSET 0.000000 0.000000 0.097916
								}
							}
						}
					}
					JOINT RightShoulder
					{
						OFFSET 0.000000 0.000000 0.092033
						CHANNELS 3 Xrotation Yrotation Zrotation
						JOINT RightArm
						{
							OFFSET 0.166682 0.000000 0.000000
							CHANNELS 3 Xrotation Yrotation Zrotation
							JOINT RightForeArm
							{
								OFFSET 0.339269 0.000000 0.000000
								CHANNELS 3 Xrotation Yrotation Zrotation
								JOINT RightHand
								{
									OFFSET 0.272813 0.000000 0.000000
									CHANNELS 3 Xrotation Yrotation Zrotation
									End Site
									{
										OFFSET 0.042337 0.031482 -0.014412
									}
									End Site
									{
										OFFSET 0.112899 -0.001086 0.000000
									}
								}
							}
						}
					}
					JOINT LeftShoulder
					{
						OFFSET 0.000000 0.000000 0.092033
						CHANNELS 3 Xrotation Yrotation Zrotation
						JOINT LeftArm
						{
							OFFSET -0.166682 0.000000 0.000000
							CHANNELS 3 Xrotation Yrotation Zrotation
							JOINT LeftForeArm
							{
								OFFSET -0.339269 0.000000 0.000000
								CHANNELS 3 Xrotation Yrotation Zrotation
								JOINT LeftHand
								{
									OFFSET -0.272813 0.000000 0.000000
									CHANNELS 3 Xrotation Yrotation Zrotation
									End Site
									{
										OFFSET -0.042337 0.031482 -0.014412
									}
									End Site
									{
										OFFSET -0.112899 -0.001086 0.000000
									}
								}
							}
						}
					}
				}
			}
		}
	}
	JOINT RightUpLeg
	{
		OFFSET 0.120852 0.000000 0.000000
		CHANNELS 3 Xrotation Yrotation Zrotation
		JOINT RightLeg
		{
			OFFSET 0.000000 0.000000 -0.533302
			CHANNELS 3 Xrotation Yrotation Zrotation
			JOINT RightFoot
			{
				OFFSET 0.000000 0.000000 -0.471812
				CHANNELS 3 Xrotation Yrotation Zrotation
				JOINT RightToeBase
				{
					OFFSET 0.000000 0.169608 -0.043308
					CHANNELS 3 Xrotation Yrotation Zrotation
					End Site
					{
						OFFSET 0.000000 0.063837 0.000000
					}
				}
			}
		}
	}
	JOINT LeftUpLeg
	{
		OFFSET -0.120852 0.000000 0.000000
		CHANNELS 3 Xrotation Yrotation Zrotation
		JOINT LeftLeg
		{
			OFFSET 0.000000 0.000000 -0.533302
			CHANNELS 3 Xrotation Yrotation Zrotation
			JOINT LeftFoot
			{
				OFFSET 0.000000 0.000000 -0.471812
				CHANNELS 3 Xrotation Yrotation Zrotation
				JOINT LeftToeBase
				{
					OFFSET 0.000000 0.169608 -0.043308
					CHANNELS 3 Xrotation Yrotation Zrotation
					End Site
					{
						OFFSET 0.000000 0.064424 0.000000
					}
				}
			}
		}
	}
}
MOTION
Frames: 13
Frame Time: 0.008333
-5.448078 0.969269 2.657853 -131.406342 -9.619275 21.609877 -29.707991 8.898395 2.640300 -29.649529 9.094342 1.848849 -2.227680 -6.371566 -1.488999 -2.227680 -6.371566 -1.488999 -12.200946 21.440139 -7.834934 1.408772 10.753449 -10.374448 19.541395 -1.090510 -8.064570 4.931616 -21.881068 13.035772 90.348860 37.006348 -21.135251 -6.476098 -6.411220 44.529408 0.000050 -37.213939 -37.798969 3.770442 27.521223 -8.116806 -47.930620 -67.383666 -115.976617 -5.139587 17.545889 -73.387415 -0.000013 -32.399935 -2.655875 76.760132 -21.483724 -4.640015 -58.149000 0.000000 0.000000 20.495030 23.164936 -8.687381 10.663800 0.000000 0.000000 76.455230 -10.774019 0.225373 -50.479100 0.000000 0.000000 8.350141 17.618384 22.838781 10.571400 0.000000 0.000000 
-5.448278 0.969167 2.658008 -131.408271 -9.600775 21.612468 -29.687239 8.903398 2.624951 -29.628649 9.098020 1.833069 -2.236328 -6.370923 -1.503990 -2.236328 -6.370923 -1.503990 -12.192110 21.439834 -7.830830 1.412745 10.752653 -10.368818 19.538882 -1.093597 -8.058178 4.928375 -21.893320 13.020833 90.342377 37.051131 -21.109077 -6.343537 -6.290466 44.584368 -0.000020 -37.213298 -37.657879 3.766503 27.510368 -8.111421 -47.936166 -67.411531 -115.961865 -5.124919 17.506441 -73.398291 0.000031 -32.383077 -2.644718 76.780113 -21.516437 -4.633103 -58.167200 0.000000 0.000000 20.481078 23.177181 -8.648842 10.670500 0.000000 0.000000 76.464296 -10.809024 0.218069 -50.491000 0.000000 0.000000 8.335885 17.623709 22.879688 10.573100 0.000000 0.000000 
-5.448319 0.969124 2.658076 -131.362516 -9.599487 21.590396 -29.710246 8.902510 2.623325 -29.651760 9.097028 1.831444 -2.233554 -6.371014 -1.506909 -2.233554 -6.371014 -1.506909 -12.164605 21.432407 -7.826126 1.426730 10.751860 -10.360134 19.535389 -1.086987 -8.049358 4.923425 -21.915502 12.995982 90.362481 37.104550 -21.089907 -6.301634 -6.257791 44.627182 0.000027 -37.173383 -37.601289 3.760256 27.490749 -8.103344 -47.889955 -67.440391 -115.912486 -5.116031 17.497802 -73.418157 0.000058 -32.384981 -2.615634 76.735025 -21.489394 -4.647830 -58.155400 0.000000 0.000000 20.463349 23.181298 -8.637123 10.691600 0.000000 0.000000 76.432539 -10.785732 0.205938 -50.511900 0.000000 0.000000 8.337908 17.646413 22.891621 10.573200 0.000000 0.000000 
-5.448418 0.969063 2.658173 -131.330428 -9.587551 21.576704 -29.722830 8.899166 2.615810 -29.664307 9.092966 1.824334 -2.229485 -6.369097 -1.513041 -2.229485 -6.369097 -1.513041 -12.152508 21.432084 -7.818149 1.433185 10.753358 -10.350714 19.533948 -1.085826 -8.039253 4.920197 -21.930489 12.979657 90.392007 37.149726 -21.088158 -6.278279 -6.248989 44.694246 -0.000025 -37.097137 -37.504488 3.755713 27.487604 -8.094420 -47.921035 -67.480145 -115.931643 -5.127315 17.536021 -73.416565 -0.000001 -32.399578 -2.605750 76.709045 -21.482039 -4.646842 -58.153800 0.000000 0.000000 20.454145 23.197088 -8.629649 10.701800 0.000000 0.000000 76.410151 -10.781334 0.202881 -50.529100 0.000000 0.000000 8.340017 17.660158 22.907116 10.583400 0.000000 0.000000 
-5.448530 0.968987 2.658290 -131.308955 -9.572510 21.565362 -29.725077 8.893935 2.606663 -29.666638 9.087012 1.815594 -2.229605 -6.365979 -1.519371 -2.229605 -6.365979 -1.519371 -12.149033 21.429444 -7.808756 1.437772 10.757301 -10.341786 19.539673 -1.075451 -8.030924 4.915261 -21.950836 12.956064 90.435319 37.208917 -21.104189 -6.318084 -6.295869 44.724972 -0.000028 -37.014401 -37.491482 3.752507 27.481595 -8.089162 -47.922221 -67.508813 -115.922273 -5.135128 17.548409 -73.403289 -0.000016 -32.372796 -2.610307 76.696321 -21.479004 -4.633951 -58.157100 0.000000 0.000000 20.449230 23.204802 -8.624701 10.695300 0.000000 0.000000 76.397230 -10.779527 0.212958 -50.545600 0.000000 0.000000 8.345038 17.669873 22.915725 10.587000 0.000000 0.000000 
-5.448647 0.968916 2.658404 -131.291963 -9.563015 21.552841 -29.723476 8.891482 2.600269 -29.664979 9.083944 1.809502 -2.228748 -6.367066 -1.524003 -2.228748 -6.367066 -1.524003 -12.159993 21.426808 -7.797106 1.437502 10.765158 -10.333605 19.551998 -1.056257 -8.024673 4.900451 -21.986169 12.898890 90.625540 37.299570 -21.188405 -6.431457 -6.399664 44.677768 0.000017 -36.946288 -37.473656 3.759326 27.486469 -8.102459 -47.962717 -67.554914 -115.935206 -5.145394 17.567300 -73.388132 -0.000030 -32.350540 -2.647199 76.690005 -21.475145 -4.625550 -58.160500 0.000000 0.000000 20.436810 23.201284 -8.614663 10.701400 0.000000 0.000000 76.391388 -10.778427 0.212753 -50.561900 0.000000 0.000000 8.348426 17.677120 22.929187 10.579900 0.000000 0.000000 
-5.448768 0.968853 2.658536 -131.276183 -9.559255 21.540945 -29.720637 8.894723 2.593915 -29.662123 9.086575 1.802933 -2.229739 -6.370743 -1.531158 -2.229739 -6.370743 -1.531158 -12.159261 21.418003 -7.787813 1.436520 10.768419 -10.324450 19.548233 -1.039144 -8.018027 4.900108 -21.994768 12.893415 90.546026 37.346407 -21.130928 -6.433654 -6.414090 44.732131 -0.000015 -36.941962 -37.488796 3.758821 27.487812 -8.100998 -48.020073 -67.604546 -115.973386 -5.144899 17.549491 -73.374228 0.000078 -32.350337 -2.656903 76.684408 -21.472226 -4.622877 -58.163200 0.000000 0.000000 20.422183 23.213699 -8.603588 10.690900 0.000000 0.000000 76.389128 -10.778832 0.206544 -50.578500 0.000000 0.000000 8.349296 17.680090 22.942392 10.580700 0.000000 0.000000 
-5.448888 0.968809 2.658663 -131.256898 -9.551470 21.525168 -29.721356 8.896159 2.588459 -29.662859 9.087602 1.797267 -2.229970 -6.374225 -1.536903 -2.229970 -6.374225 -1.536903 -12.165006 21.411769 -7.776617 1.435411 10.770232 -10.314429 19.552653 -1.029461 -8.009501 4.901197 -22.024658 12.880248 90.512743 37.397385 -21.102927 -6.391813 -6.382740 44.780839 -0.000087 -36.983149 -37.482522 3.760523 27.485887 -8.105190 -48.060435 -67.654895 -115.992873 -5.138007 17.510647 -73.361678 -0.000002 -32.351644 -2.651731 76.677454 -21.463945 -4.619281 -58.157600 0.000000 0.000000 20.406570 23.218477 -8.592452 10.710800 0.000000 0.000000 76.382204 -10.776133 0.203794 -50.596300 0.000000 0.000000 8.349689 17.677216 22.961264 10.579400 0.000000 0.000000 
-5.449114 0.968720 2.658866 -131.282408 -9.530480 21.527356 -29.683255 8.899957 2.573809 -29.624583 9.090073 1.782392 -2.236846 -6.381585 -1.549302 -2.236846 -6.381585 -1.549302 -12.207991 21.445492 -7.756265 1.423371 10.778106 -10.302785 19.579028 -1.061095 -7.992279 4.899902 -22.041908 12.867557 90.502047 37.447131 -21.098475 -6.350770 -6.344058 44.793487 -0.000020 -37.024738 -37.466834 3.773291 27.523431 -8.122279 -48.234299 -67.722563 -116.119565 -5.140530 17.482267 -73.329193 0.000008 -32.328076 -2.665009 76.727802 -21.501839 -4.590809 -58.176500 0.000000 0.000000 20.395709 23.230297 -8.566837 10.714300 0.000000 0.000000 76.413199 -10.812921 0.221737 -50.603800 0.000000 0.000000 8.335781 17.679893 22.985224 10.625200 0.000000 0.000000 
-5.449175 0.968718 2.658943 -131.238226 -9.540542 21.506517 -29.704350 8.903734 2.576569 -29.645697 9.094160 1.784843 -2.223731 -6.383884 -1.549510 -2.223731 -6.383884 -1.549510 -12.243081 21.478531 -7.733502 1.418845 10.779729 -10.286646 19.612763 -1.106910 -7.968597 4.905082 -22.076458 12.862384 90.524449 37.500525 -21.103009 -6.272760 -6.264895 44.792174 0.000093 -37.111708 -37.423422 3.781093 27.543003 -8.133595 -48.350920 -67.795564 -116.197435 -5.152031 17.498188 -73.307688 0.000072 -32.301865 -2.661397 76.679211 -21.469652 -4.607637 -58.160700 0.000000 0.000000 20.366725 23.199508 -8.565502 10.743000 0.000000 0.000000 76.387417 -10.783828 0.211739 -50.627100 0.000000 0.000000 8.342761 17.687565 22.983722 10.633400 0.000000 0.000000 
-5.449360 0.968629 2.659146 -131.242171 -9.524821 21.510355 -29.678299 8.911097 2.566397 -29.619485 9.100609 1.774038 -2.236624 -6.386150 -1.560586 -2.236624 -6.386150 -1.560586 -12.262551 21.497286 -7.721054 1.417564 10.779233 -10.277870 19.634630 -1.136263 -7.954974 4.906503 -22.120910 12.842272 90.572653 37.547813 -21.136596 -6.239639 -6.230071 44.785996 0.000008 -37.132309 -37.481239 3.793235 27.550937 -8.157395 -48.440286 -67.861167 -116.250930 -5.161411 17.511896 -73.290809 -0.000072 -32.284385 -2.656032 76.703267 -21.496761 -4.586778 -58.176900 0.000000 0.000000 20.362895 23.231442 -8.544018 10.729300 0.000000 0.000000 76.401419 -10.811323 0.218682 -50.635900 0.000000 0.000000 8.331033 17.698168 23.005583 10.635200 0.000000 0.000000 
-5.449505 0.968560 2.659319 -131.237946 -9.513841 21.503950 -29.659542 8.915922 2.562078 -29.600666 9.104930 1.769300 -2.247845 -6.387934 -1.565723 -2.247845 -6.387934 -1.565723 -12.285784 21.497920 -7.711618 1.415064 10.778921 -10.272461 19.659157 -1.139744 -7.949383 4.906692 -22.167566 12.817737 90.634227 37.586269 -21.177858 -6.196095 -6.185815 44.784775 -0.000053 -37.130187 -37.543320 3.813224 27.555321 -8.198703 -48.508147 -67.931190 -116.277480 -5.172601 17.537196 -73.278512 0.000019 -32.259652 -2.643834 76.713008 -21.504683 -4.570684 -58.178300 0.000000 0.000000 20.357488 23.251216 -8.536245 10.727000 0.000000 0.000000 76.406432 -10.820316 0.228156 -50.644500 0.000000 0.000000 8.328374 17.697327 23.017746 10.644600 0.000000 0.000000 
-5.449609 0.968489 2.659504 -131.217290 -9.505015 21.497187 -29.653572 8.924712 2.562342 -29.594545 9.113729 1.768736 -2.261845 -6.390621 -1.569555 -2.261845 -6.390621 -1.569555 -12.268850 21.470253 -7.717029 1.419931 10.771500 -10.273427 19.649454 -1.118931 -7.954827 4.903381 -22.279947 12.750048 91.025775 37.650954 -21.445051 -6.330704 -6.310062 44.731588 0.000075 -36.995538 -37.643514 3.836131 27.533849 -8.253182 -48.490791 -67.999568 -116.226604 -5.187420 17.598419 -73.286382 -0.000032 -32.250346 -2.634692 76.706279 -21.505190 -4.563065 -58.181500 0.000000 0.000000 20.340841 23.253806 -8.528779 10.723900 0.000000 0.000000 76.400367 -10.819008 0.239558 -50.657900 0.000000 0.000000 8.327329 17.703876 23.019269 10.646800 0.000000 0.000000 
